<?xml version="1.0" encoding="UTF-8" standalone="no"?>
<!-- Created with Inkscape (http://www.inkscape.org/) -->

<svg
   xmlns:dc="http://purl.org/dc/elements/1.1/"
   xmlns:cc="http://creativecommons.org/ns#"
   xmlns:rdf="http://www.w3.org/1999/02/22-rdf-syntax-ns#"
   xmlns:svg="http://www.w3.org/2000/svg"
   xmlns="http://www.w3.org/2000/svg"
   xmlns:sodipodi="http://sodipodi.sourceforge.net/DTD/sodipodi-0.dtd"
   xmlns:inkscape="http://www.inkscape.org/namespaces/inkscape"
   width="480mm"
   height="210mm"
   viewBox="0 0 1700.7873 744.09448"
   id="svg2"
   version="1.1"
   inkscape:version="0.91 r13725"
   sodipodi:docname="archaic.svg">
  <defs
     id="defs4">
    <clipPath
       clipPathUnits="userSpaceOnUse"
       id="clipPath4239">
      <rect
         style="fill:none;fill-opacity:1;stroke:#161111;stroke-width:0.7119472;stroke-opacity:1"
         id="rect4241"
         width="84.573723"
         height="167.43091"
         x="717.71313"
         y="-18.496094" />
    </clipPath>
    <clipPath
       clipPathUnits="userSpaceOnUse"
       id="clipPath4182">
      <rect
         style="fill:none;fill-opacity:1;stroke:#000000;stroke-width:5;stroke-miterlimit:4;stroke-dasharray:none;stroke-opacity:1"
         id="rect4184"
         width="319.61227"
         height="200.81833"
         x="25.455845"
         y="690.32355" />
    </clipPath>
    <clipPath
       clipPathUnits="userSpaceOnUse"
       id="clipPath4188">
      <rect
         style="fill:none;fill-opacity:1;stroke:#000000;stroke-width:5;stroke-miterlimit:4;stroke-dasharray:none;stroke-opacity:1"
         id="rect4190"
         width="333.75439"
         height="229.10258"
         x="14.970562"
         y="693.00983" />
    </clipPath>
  </defs>
  <sodipodi:namedview
     id="base"
     pagecolor="#ffffff"
     bordercolor="#666666"
     borderopacity="1.0"
     inkscape:pageopacity="0.0"
     inkscape:pageshadow="2"
     inkscape:zoom="0.125"
     inkscape:cx="551.7736"
     inkscape:cy="29.932875"
     inkscape:document-units="px"
     inkscape:current-layer="layer1"
     showgrid="false"
     inkscape:window-width="1280"
     inkscape:window-height="698"
     inkscape:window-x="75"
     inkscape:window-y="0"
     inkscape:window-maximized="0" />
  <metadata
     id="metadata7">
    <rdf:RDF>
      <cc:Work
         rdf:about="">
        <dc:format>image/svg+xml</dc:format>
        <dc:type
           rdf:resource="http://purl.org/dc/dcmitype/StillImage" />
        <dc:title />
      </cc:Work>
    </rdf:RDF>
  </metadata>
  <g
     inkscape:label="Layer 1"
     inkscape:groupmode="layer"
     id="layer1"
     transform="translate(0,-308.26772)">
    <path
       style="fill:none;fill-opacity:1;stroke:#161111;stroke-width:21.21697998;stroke-miterlimit:4;stroke-dasharray:none;stroke-opacity:1"
       d=""
       id="path4285"
       inkscape:connector-curvature="0" />
    <g
       id="g4475"
       transform="matrix(0.68172636,0,0,0.68172636,2007.8075,-154.8357)">
      <path
         inkscape:connector-curvature="0"
         id="path4321"
         d="m -929.03931,1125.9766 c -63.26722,134.8091 -47.24921,255.9369 -5.09546,365.9768 l 25.24617,-5.4685 c -41.2338,-107.6387 -56.5481,-223.5905 4.6235,-353.9337 l -24.77421,-6.5746 z"
         style="color:#000000;font-style:normal;font-variant:normal;font-weight:normal;font-stretch:normal;font-size:medium;line-height:normal;font-family:sans-serif;text-indent:0;text-align:start;text-decoration:none;text-decoration-line:none;text-decoration-style:solid;text-decoration-color:#000000;letter-spacing:normal;word-spacing:normal;text-transform:none;direction:ltr;block-progression:tb;writing-mode:lr-tb;baseline-shift:baseline;text-anchor:start;white-space:normal;clip-rule:nonzero;display:inline;overflow:visible;visibility:visible;opacity:1;isolation:auto;mix-blend-mode:normal;color-interpolation:sRGB;color-interpolation-filters:linearRGB;solid-color:#000000;solid-opacity:1;fill:#000000;fill-opacity:1;fill-rule:evenodd;stroke:#000000;stroke-width:10;stroke-linecap:butt;stroke-linejoin:miter;stroke-miterlimit:4;stroke-dasharray:none;stroke-dashoffset:0;stroke-opacity:1;color-rendering:auto;image-rendering:auto;shape-rendering:auto;text-rendering:auto;enable-background:accumulate" />
      <path
         inkscape:connector-curvature="0"
         id="path4323"
         d="m -1013.6092,1130.1925 -4.9003,363.078 26.27083,0.2006 4.90029,-363.0779 -26.27082,-0.2007 z"
         style="color:#000000;font-style:normal;font-variant:normal;font-weight:normal;font-stretch:normal;font-size:medium;line-height:normal;font-family:sans-serif;text-indent:0;text-align:start;text-decoration:none;text-decoration-line:none;text-decoration-style:solid;text-decoration-color:#000000;letter-spacing:normal;word-spacing:normal;text-transform:none;direction:ltr;block-progression:tb;writing-mode:lr-tb;baseline-shift:baseline;text-anchor:start;white-space:normal;clip-rule:nonzero;display:inline;overflow:visible;visibility:visible;opacity:1;isolation:auto;mix-blend-mode:normal;color-interpolation:sRGB;color-interpolation-filters:linearRGB;solid-color:#000000;solid-opacity:1;fill:#000000;fill-opacity:1;fill-rule:evenodd;stroke:#000000;stroke-width:10;stroke-linecap:butt;stroke-linejoin:miter;stroke-miterlimit:4;stroke-dasharray:none;stroke-dashoffset:0;stroke-opacity:1;color-rendering:auto;image-rendering:auto;shape-rendering:auto;text-rendering:auto;enable-background:accumulate" />
      <path
         inkscape:connector-curvature="0"
         id="path4325"
         d="m -914.51234,1480.1996 -18.29151,14.182 c 6.26646,4.5697 14.54893,8.623 23.73405,13.4399 9.18512,4.817 19.02577,10.1122 26.70348,15.3436 7.67771,5.2313 12.71405,10.5082 13.87171,13.5363 1.15764,3.0282 1.64831,3.9824 -4.88502,8.2504 -18.67788,12.2015 -32.31619,15.5353 -41.37224,15.4554 -9.05626,-0.08 -15.3398,-3.1778 -20.93426,-8.1926 -3.77275,-3.3821 -6.69784,-7.6169 -8.72825,-11.4903 0.30406,-0.4227 0.67155,-0.7736 0.951,-1.2257 1.74476,-2.8229 2.82706,-6.7919 1.21603,-10.73 -1.61103,-3.9381 -5.54545,-6.8768 -9.41267,-8.5951 -1.89313,-0.8413 -4.82199,-1.7547 -8.57788,-1.5369 -3.75566,0.2176 -7.51177,1.8893 -9.47588,3.5457 -3.92776,3.3131 -3.78205,5.5776 -4.01093,7.4198 -0.25062,2.0167 -0.10646,3.8811 0.23442,5.7566 -0.16412,0.09 -0.21734,0.1601 -0.38834,0.2495 -8.89037,4.6896 -24.77288,10.043 -38.91087,12.5486 -7.0691,1.2529 -13.7492,1.8057 -18.6011,1.5999 -4.8522,-0.2056 -7.3102,-1.2072 -7.7859,-1.542 -0.4759,-0.3346 -1.1333,-0.2797 -0.5644,-3.7425 0.5686,-3.463 3.4026,-9.7335 10.1053,-18.2617 9.6763,-12.312 26.7013,-22.0909 39.98158,-30.1376 l -16.48528,-15.382 c -12.4941,7.5702 -32.8578,18.6022 -46.1137,35.4686 -7.7985,9.9226 -12.2912,18.1545 -13.562,25.8909 -1.2708,7.7363 1.7193,15.6877 8.689,20.5907 6.9697,4.903 15.7552,6.4793 24.2574,6.8397 8.5025,0.3603 17.2871,-0.5337 26.105,-2.0964 15.06874,-2.6707 29.90688,-7.3119 41.9195,-12.7879 2.44848,3.492 5.32478,6.9935 9.02943,10.3146 9.02522,8.0902 23.0605,15.0934 40.75497,15.2496 17.69447,0.1568 37.24116,-6.139 58.91108,-20.295 11.86263,-7.7493 16.47715,-19.2738 12.90361,-28.6213 -3.57353,-9.3477 -12.1248,-16.3438 -21.47978,-22.7181 -9.35499,-6.374 -19.99187,-12.0178 -29.31532,-16.9073 -9.32345,-4.8894 -17.58019,-9.3103 -20.47223,-11.4194 z"
         style="color:#000000;font-style:normal;font-variant:normal;font-weight:normal;font-stretch:normal;font-size:medium;line-height:normal;font-family:sans-serif;text-indent:0;text-align:start;text-decoration:none;text-decoration-line:none;text-decoration-style:solid;text-decoration-color:#000000;letter-spacing:normal;word-spacing:normal;text-transform:none;direction:ltr;block-progression:tb;writing-mode:lr-tb;baseline-shift:baseline;text-anchor:start;white-space:normal;clip-rule:nonzero;display:inline;overflow:visible;visibility:visible;opacity:1;isolation:auto;mix-blend-mode:normal;color-interpolation:sRGB;color-interpolation-filters:linearRGB;solid-color:#000000;solid-opacity:1;fill:#000000;fill-opacity:1;fill-rule:evenodd;stroke:#000000;stroke-width:10;stroke-linecap:butt;stroke-linejoin:miter;stroke-miterlimit:4;stroke-dasharray:none;stroke-dashoffset:0;stroke-opacity:1;color-rendering:auto;image-rendering:auto;shape-rendering:auto;text-rendering:auto;enable-background:accumulate" />
      <path
         inkscape:connector-curvature="0"
         id="path4327"
         d="m -1004.2032,1041.1235 c -17.6944,-0.1567 -37.2395,6.1402 -58.9094,20.2964 -11.8627,7.7493 -16.4789,19.2723 -12.9053,28.62 3.5736,9.3476 12.1249,16.3438 21.4799,22.7179 9.355,6.3742 19.9917,12.0178 29.3152,16.9074 9.3235,4.8895 17.582,9.3104 20.474,11.4195 l 18.28978,-14.1809 c -6.26646,-4.5696 -14.54888,-8.6241 -23.73408,-13.4411 -9.1851,-4.8169 -19.0258,-10.1121 -26.7035,-15.3435 -7.6776,-5.2313 -12.7141,-10.5082 -13.8716,-13.5363 -1.1577,-3.0282 -1.6467,-3.9826 4.8866,-8.2506 18.678,-12.2013 32.3143,-15.5351 41.3706,-15.4552 9.05626,0.08 15.3398,3.1778 20.93427,8.1925 3.7723,3.3818 6.69938,7.6159 8.73002,11.489 -0.30451,0.4232 -0.67311,0.7744 -0.95278,1.2269 -1.74476,2.8231 -2.82706,6.7921 -1.21603,10.7302 1.61103,3.9381 5.54722,6.8768 9.41422,8.5951 1.89336,0.8413 4.82044,1.7545 8.57611,1.5369 3.75588,-0.2177 7.51377,-1.8893 9.47765,-3.5459 3.92799,-3.3129 3.7805,-5.5774 4.00938,-7.4196 0.2504,-2.0167 0.10646,-3.8811 -0.23265,-5.7567 0.16412,-0.09 0.21735,-0.1601 0.38835,-0.2495 8.89037,-4.6895 24.77265,-10.0429 38.91084,-12.5487 7.0691,-1.2527 13.74734,-1.8055 18.59937,-1.5999 4.85202,0.2058 7.31188,1.2074 7.78767,1.542 0.47577,0.3347 1.13155,0.2799 0.56273,3.7427 -0.56883,3.4628 -3.40268,9.7335 -10.10532,18.2617 -9.67644,12.3118 -26.69957,22.0909 -39.97991,30.1375 l 16.48354,15.3821 c 12.49412,-7.5704 32.8594,-18.6023 46.11532,-35.4686 7.79854,-9.9226 12.28956,-18.1545 13.5604,-25.891 1.27084,-7.7363 -1.7193,-15.6865 -8.68906,-20.5893 -6.96976,-4.903 -15.75345,-6.4806 -24.25584,-6.841 -8.50236,-0.3603 -17.28865,0.5337 -26.1065,2.0964 -15.06857,2.6705 -29.90537,7.312 -41.918,12.7879 -2.44848,-3.492 -5.3261,-6.9936 -9.03098,-10.3146 -9.02521,-8.0902 -23.0605,-15.0934 -40.755,-15.2497 z"
         style="color:#000000;font-style:normal;font-variant:normal;font-weight:normal;font-stretch:normal;font-size:medium;line-height:normal;font-family:sans-serif;text-indent:0;text-align:start;text-decoration:none;text-decoration-line:none;text-decoration-style:solid;text-decoration-color:#000000;letter-spacing:normal;word-spacing:normal;text-transform:none;direction:ltr;block-progression:tb;writing-mode:lr-tb;baseline-shift:baseline;text-anchor:start;white-space:normal;clip-rule:nonzero;display:inline;overflow:visible;visibility:visible;opacity:1;isolation:auto;mix-blend-mode:normal;color-interpolation:sRGB;color-interpolation-filters:linearRGB;solid-color:#000000;solid-opacity:1;fill:#000000;fill-opacity:1;fill-rule:evenodd;stroke:#000000;stroke-width:10;stroke-linecap:butt;stroke-linejoin:miter;stroke-miterlimit:4;stroke-dasharray:none;stroke-dashoffset:0;stroke-opacity:1;color-rendering:auto;image-rendering:auto;shape-rendering:auto;text-rendering:auto;enable-background:accumulate" />
    </g>
    <path
       style="fill:#000000;fill-opacity:1;stroke:#000000;stroke-width:5;stroke-miterlimit:4;stroke-dasharray:none;stroke-opacity:1"
       id="path4444"
       d="m 411.8601,548.87052 c -3.917,49.22065 -3.639,98.66917 -3.7333,148.01108 0.1103,44.31696 1.0564,88.62779 2.3653,132.92409 0.3258,14.38617 0.9575,28.76144 1.1695,43.15032 0.052,4.15918 0.06,8.31868 0.069,12.4781 0,0 -55.68189,28.37135 -55.68189,28.37135 l 0,0 c 0.01,-4.18272 0.016,-8.36551 0.069,-12.54797 0.2146,-14.78589 0.8442,-29.55884 1.1695,-44.34216 1.2937,-45.10031 2.2488,-90.21421 2.3653,-135.3344 -0.092,-48.07038 0.2953,-96.26784 -3.7333,-144.20665 0,0 55.94169,-28.50376 55.94169,-28.50376 z"
       inkscape:connector-curvature="0" />
    <path
       style="fill:#000000;fill-opacity:1;stroke:#000000;stroke-width:5;stroke-miterlimit:4;stroke-dasharray:none;stroke-opacity:1"
       id="path4446"
       d="m 372.24225,574.42788 c 161.6248,-93.19543 7.9753,-4.8252 12.0535,-7.07886 43.1869,-23.86559 52.0397,-33.42488 89.4906,-45.18184 7.4939,-0.96282 18.2229,-7.16813 25.757,-4.05868 3.9902,1.64684 5.882,4.41134 8.7109,7.47264 10.2314,14.70488 12.538,32.63344 14.5088,49.99401 1.9423,18.35973 2.3645,36.55694 -2.1184,54.52849 -5.232,18.7037 -19.669,31.01699 -33.7111,43.33268 -22.5226,19.39256 -49.1564,31.48352 -75.1804,46.29347 -16.5964,9.4448 33.0963,-19.05834 49.6944,-28.50015 1.1266,-0.64086 -2.1838,1.39661 -3.2757,2.09491 -19.3599,15.17457 -37.511,22.29986 -62.6681,36.16092 -3.3069,1.82206 -6.848,2.88661 -10.1284,4.83484 2.6044,-2.39934 -7.8923,4.35042 -5.9532,3.20263 17.4886,-10.35177 35.1186,-20.47196 52.4008,-31.16462 0.3935,-0.24349 -0.2557,-1.49213 0.192,-1.375 1.7384,0.45484 3.1164,1.79057 4.6928,2.65304 2.6649,1.45795 5.3537,2.87189 8.0305,4.30784 26.5055,12.90132 50.1198,30.17896 72.448,49.23242 19.7692,15.87791 34.8554,36.18018 50.34251,55.99533 4.4728,5.51312 8.0587,11.62697 11.6162,17.74191 0,0 -53.85881,30.85767 -53.85881,30.85767 l 0,0 c -2.9514,-6.07962 -6.0802,-12.06206 -10.1544,-17.49304 -14.4577,-19.96346 -28.8462,-40.10939 -48.2031,-55.75602 -22.2046,-18.95518 -46.0045,-35.69803 -73.0952,-47.04167 -1.5125,-0.68574 -13.0737,-5.65981 -15.2318,-7.48951 -1.7665,-1.49764 -6.0559,-4.04556 -4.2504,-5.49599 23.7011,-19.04011 38.2633,-26.60872 59.8639,-37.32406 1.9093,-0.8382 18.927,-9.4284 10.4824,-4.42546 -92.18219,54.61258 -61.3724,37.64815 -44.647,25.6077 19.8443,-16.36334 5.9676,-5.21225 60.1527,-35.55901 16.2849,-9.12051 -32.3022,18.71127 -48.408,28.14468 -1.8867,1.1051 3.8895,-2.00855 5.7492,-3.15866 5.3719,-3.32232 7.7327,-5.4517 12.7659,-9.44513 13.8465,-11.26821 28.6847,-22.77424 35.1617,-39.99168 5.4538,-17.39445 4.848,-34.47942 3.2408,-52.49316 -1.6158,-15.84256 -3.2253,-32.76372 -13.4287,-45.70421 -1.1027,-0.9198 -2.0617,-2.04627 -3.308,-2.7594 -6.4572,-3.6948 -19.8633,3.25004 -26.3429,4.13546 -7.6677,2.588 -10.8626,3.48915 -18.4279,6.80474 -3.2618,1.42957 -12.6824,6.45742 -9.6413,4.604 14.5177,-8.84785 58.907,-33.97929 44.1083,-25.61007 -35.0044,19.79627 -112.73809,65.52707 -10.9552,5.85223 0,0 -58.4749,23.25461 -58.4749,23.25461 z"
       inkscape:connector-curvature="0" />
    <path
       style="fill:#000000;fill-opacity:1;stroke:#000000;stroke-width:5;stroke-miterlimit:4;stroke-dasharray:none;stroke-opacity:1"
       id="path4448"
       d="m 668.67936,724.89932 c -10.8239,-4.16201 -22.409,-5.89872 -33.8965,-4.60567 -7.4531,1.83416 -15.0222,4.09495 -21.8824,7.62444 -2.4445,1.25766 -9.4408,5.63514 -7.0415,4.2932 45.7179,-25.57063 60.0949,-36.444 39.4284,-21.34003 -12.7374,9.91397 -15.86,24.28936 -17.7498,39.47939 -1.9864,20.41636 -2.2359,33.06591 7.9385,51.31005 15.8051,21.63665 30.1177,27.38112 55.5762,33.05795 32.7359,5.98532 63.72,5.4356 96.2882,-0.75319 4.0935,-0.99309 8.187,-1.98618 12.2805,-2.97927 0,0 -47.8763,36.38826 -47.8763,36.38826 l 0,0 c -3.9577,0.772 -7.9154,1.54399 -11.873,2.31599 -32.5756,4.88341 -65.3166,5.04376 -97.8186,-1.03563 -10.5375,-2.48922 -17.0205,-3.4157 -26.7979,-7.99078 -13.322,-6.23366 -23.9554,-16.99226 -32.66451,-28.56838 -11.1161,-19.85289 -11.5657,-32.19697 -9.8625,-54.53415 1.375,-16.06733 3.3304,-32.09211 15.50051,-43.92837 23.6755,-19.01343 6.9344,-6.05166 65.3404,-39.88755 9.3815,-5.43489 20.0411,-8.5943 30.752,-9.87527 12.6225,-0.0775 25.2059,1.65257 36.9924,6.39761 0,0 -52.6341,34.6314 -52.6341,34.6314 z"
       inkscape:connector-curvature="0" />
    <path
       style="fill:#000000;fill-opacity:1;stroke:#000000;stroke-width:5;stroke-miterlimit:4;stroke-dasharray:none;stroke-opacity:1"
       id="path4450"
       d="m 858.59336,525.03421 c -3.2917,44.94232 -3.0399,90.06482 -2.6513,135.09854 0.2822,31.60102 1.076,63.19293 2.0434,94.77917 0.1867,11.7023 0.4816,23.40289 0.6807,35.10462 -0.3267,10.01886 1.0522,19.94681 2.1505,29.88398 2.5916,12.13897 4.0788,24.41893 5.0873,36.77985 2.7255,26.85082 9.9253,14.17365 -54.8332,33.76213 -2.7653,0.83646 -0.082,-5.77754 -0.1477,-8.66583 -0.089,-3.92173 -0.2104,-7.84265 -0.3157,-11.76397 -0.4826,-27.89708 -2.1828,-55.78062 -1.6549,-83.68388 0.434,-18.91185 1.6689,-38.38415 11.2943,-55.06848 15.9764,-19.75411 46.721,-30.38436 65.7836,-40.00518 1.7907,-0.90379 9.9484,0.63877 11.5191,1.14674 2.1573,0.69768 4.1421,1.8455 6.2131,2.76824 13.4488,7.00359 23.4136,18.25316 32.2815,30.27086 7.0634,9.36956 11.1423,20.01028 15.151,30.89211 2.2079,8.52858 3.9884,17.09299 6.5272,25.53248 1.3393,6.3533 3.5757,12.43931 5.0074,18.76702 1.3074,4.90067 1.3208,10.06186 2.3236,14.99696 2.8689,4.85917 6.2906,9.20191 8.9555,14.2168 1.9814,3.60265 0.9978,1.70685 2.9283,5.69902 0,0 -54.5363,30.98312 -54.5363,30.98312 l 0,0 c -1.837,-3.72476 -0.8516,-1.87183 -2.9638,-5.55471 -2.6453,-5.45174 -6.7531,-9.80287 -9.7204,-15.07068 -1.753,-4.99571 -0.9019,-10.47038 -2.1792,-15.63232 -1.3191,-6.24774 -3.8684,-12.08114 -4.8575,-18.3985 -2.2919,-8.44262 -3.979,-16.92214 -5.9127,-25.44413 -3.497,-10.4148 -7.5222,-20.47211 -13.7557,-29.60946 -8.0565,-11.17731 -17.5847,-21.53352 -30.5218,-27.01186 -4.5623,-1.16671 -5.9462,-2.01213 -10.5969,-1.41032 -1.6467,0.21309 -6.2269,2.14505 -4.8172,1.26786 16.0079,-9.96035 32.6378,-18.8884 48.7832,-28.62421 1.4783,-0.89143 -3.2869,1.1495 -4.7471,2.07015 -1.5579,0.9822 -2.8071,2.38487 -4.2106,3.5773 -1.4295,1.61852 -3.1134,3.04388 -4.2885,4.85557 -8.917,13.74754 -8.6302,32.1102 -10.121,47.69868 -1.0634,27.67171 -0.065,55.41567 1.7431,83.03887 0.3566,3.7488 0.635,7.50587 1.0698,11.24642 0.3093,2.66044 3.2839,6.31678 1.1616,7.95064 -61.176,47.0972 -54.3888,52.6085 -55.4163,23.66755 -0.8267,-12.3095 -2.4328,-24.48993 -5.1235,-36.54149 -1.0247,-10.06806 -3.1972,-20.07715 -2.9616,-30.20597 0.1996,-11.93297 0.4933,-23.86483 0.6807,-35.79834 0.9587,-32.2807 1.7552,-64.56666 2.0434,-96.86149 0.3775,-44.13017 0.7368,-88.36522 -2.6513,-132.39668 0,0 55.5559,-28.30718 55.5559,-28.30718 z"
       inkscape:connector-curvature="0" />
    <path
       inkscape:connector-curvature="0"
       d="m 1530.5755,720.65592 c -10.8239,-4.16201 -22.409,-5.89872 -33.8965,-4.60567 -7.4531,1.83416 -15.0222,4.09495 -21.8824,7.62444 -2.4445,1.25766 -9.4408,5.63514 -7.0415,4.2932 45.7179,-25.57063 60.0949,-36.444 39.4284,-21.34003 -12.7374,9.91397 -15.86,24.28936 -17.7498,39.47939 -1.9864,20.41636 -2.2359,33.06591 7.9385,51.31005 15.8051,21.63665 30.1177,27.38112 55.5762,33.05795 32.7359,5.98532 63.72,5.4356 96.2882,-0.75319 4.0935,-0.99309 8.187,-1.98618 12.2805,-2.97927 0,0 -47.8763,36.38826 -47.8763,36.38826 l 0,0 c -3.9577,0.772 -7.9154,1.54399 -11.873,2.31599 -32.5756,4.88341 -65.3166,5.04376 -97.8186,-1.03563 -10.5375,-2.48922 -17.0205,-3.4157 -26.7979,-7.99078 -13.322,-6.23366 -23.9554,-16.99226 -32.6645,-28.56838 -11.1161,-19.85289 -11.5657,-32.19697 -9.8625,-54.53415 1.375,-16.06733 3.3304,-32.09211 15.5005,-43.92837 23.6755,-19.01343 6.9344,-6.05166 65.3404,-39.88755 9.3815,-5.43489 20.0411,-8.5943 30.752,-9.87527 12.6225,-0.0775 25.2059,1.65257 36.9924,6.39761 0,0 -52.6341,34.6314 -52.6341,34.6314 z"
       id="path4456"
       style="fill:#000000;fill-opacity:1;stroke:#000000;stroke-width:5;stroke-miterlimit:4;stroke-dasharray:none;stroke-opacity:1" />
    <g
       id="layer1-3"
       transform="matrix(0.21239963,0,0,0.21239963,1239.1909,333.39004)"
       style="stroke:#000000;stroke-width:34.44173431;stroke-miterlimit:4;stroke-dasharray:none;stroke-opacity:1">
      <path
         style="fill:#ffffff;fill-opacity:1;fill-rule:evenodd;stroke:#000000;stroke-width:34.44173431;stroke-linecap:round;stroke-linejoin:round;stroke-miterlimit:4;stroke-dasharray:none;stroke-opacity:1"
         id="path3284"
         d="M 254.28571,461.14286 C 124.95845,283.80783 172.76589,22.344179 518.57143,18.285713 864.73551,17.69165 924.62692,295.79296 792.85714,449.71428 801.32363,531.52515 801.56457,600.4124 738.57143,618.28571 712.86044,726.38095 722.49635,794.47619 707.14286,829.71429 635.26721,956.70016 410.90207,962.45201 340,831.14286 323.6463,789.92743 337.52032,722.46793 305.74554,612.10714 261.82483,595.21957 248.75392,542.69908 254.28571,461.14286 Z m 0,-222.85715 c -17.59974,40.73409 -9.16333,66.77865 7.42858,110.14286 10.36401,26.90476 -2.21101,80.80953 -7.42858,112.71429 M 797.14286,238.28571 c 12.29402,25.79332 10.01232,51.56456 -7,104 -11.58993,30.47619 0.10253,76.95238 2.71428,107.42857 M 394.53571,693.85714 c -10.53504,-35.20272 -52.53634,-70.40668 -88.79017,-81.75 m 349.59375,79.875 c 16.62092,-41.97389 39.13588,-71.99496 83.23214,-73.69643"
         inkscape:connector-curvature="0" />
      <path
         style="fill:none;fill-opacity:1;fill-rule:evenodd;stroke:#000000;stroke-width:34.44173431;stroke-linecap:round;stroke-linejoin:round;stroke-miterlimit:4;stroke-dasharray:none;stroke-opacity:1"
         id="path3289"
         d="m 340,626 c 21.01189,47.92858 32.25073,99.76637 40,153 48.14101,60.93798 214.10511,78.92024 285,-3 4.80593,-50.91045 22.64395,-100.37289 39,-150 l -48.66071,65.98214 c -5.7084,41.23212 -253.33798,38.59613 -260.80358,1.875 L 340,626 Z m 63.5,172 0,-92 m 28.5,109 1,-101 m 29.5,108 0.5,-103 m 29.5,108.5 c 0,-2 0.5,-106 0.5,-106 M 523.5,831 523,722.5 M 554.5,827 554,722 M 583,822.5 582,719 M 615.5,810.5 614,715 m 30,79 -1,-88.5 m -1,45 c -81.57273,35.5365 -154.09125,38.05497 -238,0"
         inkscape:connector-curvature="0" />
      <path
         style="fill:#000000;fill-opacity:1;fill-rule:evenodd;stroke:#000000;stroke-width:34.44173431;stroke-linecap:butt;stroke-linejoin:miter;stroke-miterlimit:4;stroke-dasharray:none;stroke-opacity:1"
         id="path3287"
         d="m 309.25,417.75 c -5.68981,20.92871 -1.79034,47.67527 5.75,71.25 9.4422,29.5578 30.8971,47.1029 67,50 41.69936,1.05449 68.26188,-23.11909 86,-62 4.90603,-11.72931 7.98314,-31.34457 3,-53 -2.92837,-11.01791 -16.77401,-27.369 -30.25,-35.75 -24.64077,-14.78154 -121.95596,-6.41192 -131.5,29.5 z m 430.53743,-2.67081 c 5.68981,20.92871 1.79034,47.67527 -5.75,71.25 -9.4422,29.5578 -30.8971,47.1029 -67,50 -41.69936,1.05449 -68.26188,-23.11909 -86,-62 -4.90603,-11.72931 -7.98314,-31.34457 -3,-53 2.92837,-11.01791 16.77401,-27.369 30.25,-35.75 24.64077,-14.78154 121.95596,-6.41192 131.5,29.5 z M 513.5,512 l 0,118 c -17.45348,26.54455 -23.55845,28.54925 -33.5,28 -13.09329,0.0466 -21.92488,-19.53756 -19.5,-42 6.41738,-71.20314 28.01837,-85.86503 53,-104 z m 17.7995,0.46424 0,118 c 17.45348,26.54455 23.55845,28.54925 33.5,28 13.09329,0.0466 21.92488,-19.53756 19.5,-42 -6.41738,-71.20314 -28.01837,-85.86503 -53,-104 z"
         inkscape:connector-curvature="0" />
    </g>
    <path
       style="fill:#000000;fill-opacity:1;stroke:#000000;stroke-width:6.5361805;stroke-miterlimit:4;stroke-dasharray:none;stroke-opacity:1"
       id="path4178"
       d="m 265.33751,706.54587 c -27.27961,-1.63917 -52.89963,1.5812 -79.44492,7.66148 -23.17336,7.13804 -46.0305,17.83654 -62.85412,35.80659 -2.62186,2.80052 -4.8349,5.95751 -7.25235,8.93626 -11.51413,17.72051 -15.22196,32.529 -12.38862,53.38652 3.10969,15.04436 12.59924,26.31882 25.04188,34.72489 13.40608,9.118 28.01979,13.62146 43.88892,15.87185 18.18612,1.05357 56.94327,4.98138 -25.30582,0.71357 -3.08433,-0.16005 6.14709,-0.65838 9.18657,-1.20637 8.03177,-1.44805 8.47726,-1.98994 15.89377,-4.79169 14.66983,-7.09144 20.18016,-18.64639 25.08777,-33.31228 4.44975,-17.67052 6.69744,-35.84893 8.24242,-53.98335 1.18965,-11.31255 0.39314,-22.73177 1.57794,-34.02824 1.19172,-11.21783 3.19597,-22.31326 4.96668,-33.4481 3.34682,-21.85125 1.60018,-8.83129 55.97111,-0.9077 0.0781,0.0118 -0.27779,18.02178 -0.30688,19.50415 -0.29739,18.06655 -0.57532,36.09926 0.99426,54.11113 0.42159,14.43602 4.37111,27.95386 10.6147,40.85571 6.26668,11.99729 18.26806,19.16756 29.85362,25.36117 11.55108,6.61282 24.26204,9.49514 37.33812,10.95306 0,0 -53.24163,7.68497 -53.24163,7.68497 l 0,0 c -13.14981,-2.17056 -25.70581,-6.14789 -37.23293,-13.01321 -12.13005,-7.27822 -24.18128,-15.30576 -30.19858,-28.66267 -6.05131,-13.60945 -10.06603,-27.77291 -10.26492,-42.79329 -1.06243,-18.14514 -0.76727,-36.28382 -1.01085,-54.45355 -0.21223,-5.86767 -0.23653,-8.89519 -0.72961,-14.54117 -0.12183,-1.39574 -1.8823,-4.01362 -0.49051,-4.17444 90.39609,-10.44522 59.15762,-17.94596 52.98136,1.13072 -2.55031,10.84936 -4.59685,21.79851 -5.152,32.95391 -1.16437,11.29572 -1.0265,22.72119 -2.66891,33.98801 -2.05889,18.43458 -4.18614,36.93635 -8.03293,55.09092 -4.58672,15.39632 -10.93168,29.5614 -25.54685,37.90043 -2.57642,1.18844 -5.06588,2.58717 -7.72925,3.56533 -3.3373,1.22568 -14.42155,4.06965 -17.88992,4.18001 -26.92047,0.85659 -53.04337,2.35441 -79.47347,-1.23033 -16.11614,-3.02563 -30.922375,-8.661 -44.332415,-18.33398 -12.82538,-10.14571 -22.32782,-22.45505 -24.89937,-39.0627 -0.86026,-7.74792 -1.6654,-11.52777 -0.93033,-19.43479 1.27262,-13.68933 6.68079,-26.78304 14.22459,-38.12717 6.97652,-8.7238 8.56112,-11.50988 17.3001,-18.98107 15.77843,-13.48939 34.965855,-22.45008 54.497515,-28.98194 24.86082,-6.27956 49.92041,-10.59267 75.68264,-9.47066 0,0 54.03322,8.55802 54.03322,8.55802 z"
       inkscape:connector-curvature="0"
       clip-path="url(#clipPath4188)" />
    <path
       clip-path="url(#clipPath4188)"
       inkscape:connector-curvature="0"
       d="m 265.33751,706.54587 c -27.27961,-1.63917 -52.89963,1.5812 -79.44492,7.66148 -23.17336,7.13804 -46.0305,17.83654 -62.85412,35.80659 -2.62186,2.80052 -4.8349,5.95751 -7.25235,8.93626 -11.51413,17.72051 -15.22196,32.529 -12.38862,53.38652 3.10969,15.04436 12.59924,26.31882 25.04188,34.72489 13.40608,9.118 28.01979,13.62146 43.88892,15.87185 18.18612,1.05357 56.94327,4.98138 -25.30582,0.71357 -3.08433,-0.16005 6.14709,-0.65838 9.18657,-1.20637 8.03177,-1.44805 8.47726,-1.98994 15.89377,-4.79169 14.66983,-7.09144 20.18016,-18.64639 25.08777,-33.31228 4.44975,-17.67052 6.69744,-35.84893 8.24242,-53.98335 1.18965,-11.31255 0.39314,-22.73177 1.57794,-34.02824 1.19172,-11.21783 3.19597,-22.31326 4.96668,-33.4481 3.34682,-21.85125 1.60018,-8.83129 55.97111,-0.9077 0.0781,0.0118 -0.27779,18.02178 -0.30688,19.50415 -0.29739,18.06655 -0.57532,36.09926 0.99426,54.11113 0.42159,14.43602 4.37111,27.95386 10.6147,40.85571 6.26668,11.99729 18.26806,19.16756 29.85362,25.36117 11.55108,6.61282 24.26204,9.49514 37.33812,10.95306 0,0 -53.24163,7.68497 -53.24163,7.68497 l 0,0 c -13.14981,-2.17056 -25.70581,-6.14789 -37.23293,-13.01321 -12.13005,-7.27822 -24.18128,-15.30576 -30.19858,-28.66267 -6.05131,-13.60945 -10.06603,-27.77291 -10.26492,-42.79329 -1.06243,-18.14514 -0.76727,-36.28382 -1.01085,-54.45355 -0.21223,-5.86767 -0.23653,-8.89519 -0.72961,-14.54117 -0.12183,-1.39574 -1.8823,-4.01362 -0.49051,-4.17444 90.39609,-10.44522 59.15762,-17.94596 52.98136,1.13072 -2.55031,10.84936 -4.59685,21.79851 -5.152,32.95391 -1.16437,11.29572 -1.0265,22.72119 -2.66891,33.98801 -2.05889,18.43458 -4.18614,36.93635 -8.03293,55.09092 -4.58672,15.39632 -10.93168,29.5614 -25.54685,37.90043 -2.57642,1.18844 -5.06588,2.58717 -7.72925,3.56533 -3.3373,1.22568 -14.42155,4.06965 -17.88992,4.18001 -26.92047,0.85659 -53.04337,2.35441 -79.47347,-1.23033 -16.11614,-3.02563 -30.922375,-8.661 -44.332415,-18.33398 -12.82538,-10.14571 -22.32782,-22.45505 -24.89937,-39.0627 -0.86026,-7.74792 -1.6654,-11.52777 -0.93033,-19.43479 1.27262,-13.68933 6.68079,-26.78304 14.22459,-38.12717 6.97652,-8.7238 8.56112,-11.50988 17.3001,-18.98107 15.77843,-13.48939 34.965855,-22.45008 54.497515,-28.98194 24.86082,-6.27956 49.92041,-10.59267 75.68264,-9.47066 0,0 54.03322,8.55802 54.03322,8.55802 z"
       id="path4192"
       style="fill:#000000;fill-opacity:1;stroke:#000000;stroke-width:6.5361805;stroke-miterlimit:4;stroke-dasharray:none;stroke-opacity:1"
       transform="translate(939.03778,11.313708)" />
  </g>
</svg>
